# xmcd CD database file
#
# Track frame offsets:
#	150
#	17296
#	31759
#	42844
#	57026
#	74940
#	88088
#	104317
#	120615
#	150590
#	167714
#	186024
#
# Disc length: 2724 seconds
#
# Revision: 0
# Processed by: cddbd v1.5.2PL0 Copyright (c) Steve Scherf et al.
# Submitted via: CDex 1.70beta2
#
DISCID=920aa20c
DTITLE=Jimmy and The Sleepers - Jimmy and The Sleepers
DYEAR=2006
DGENRE=Blues
TTITLE0=Snakes
TTITLE1=The Blues Seem to Follow Me
TTITLE2=Oopin' Doopin' Doopin'
TTITLE3=Not Gettin' Up
TTITLE4=Gotta Move
TTITLE5=Come On
TTITLE6=Feel So Bad
TTITLE7=Let's Make a Little Love Tonight
TTITLE8=Standing Around Crying
TTITLE9=Sugar Coated Love
TTITLE10=Cricket Boogie
TTITLE11=You Were Wrong
EXTD=YEAR: 2006
EXTT0=
EXTT1=
EXTT2=
EXTT3=
EXTT4=
EXTT5=
EXTT6=
EXTT7=
EXTT8=
EXTT9=
EXTT10=
EXTT11=
PLAYORDER=
